# xmcd
#
# Track frame offsets: 
#        150
#        7794
#        21158
#        36920
#        47612
#        60473
#        76337
#        87532
#        102497
#        114958
#        126513
#        143256
#        154169
#
# Disc length: 2229 seconds
#
# Revision: 0
# Processed by: cddbd v1.5.2PL0 Copyright (c) Steve Scherf et al.
# Submitted via: ExactAudioCopyFreeDBPlugin 1.0
#
DISCID=9b08b30d
DTITLE=Loafer's Glory - Loafer's Glory
DYEAR=2012
DGENRE=Bluegrass
TTITLE0=Crow, Little Rooster 
TTITLE1=Legend of the Johnson Boys 
TTITLE2=May You Never Be Alone 
TTITLE3=Let Me Fall
TTITLE4=Sweet Heaven in my View 
TTITLE5=Banjo Pickin' Girl 
TTITLE6=I'll Be Alright Tomorrow 
TTITLE7=Milwaukee Blues
TTITLE8=The New Partner Waltz 
TTITLE9=Just to Ease My Worried Mind 
TTITLE10=Otto Wood, the Bandit 
TTITLE11=Ridin' the L and N 
TTITLE12=Is There Room for Me 
EXTD=
EXTT0=
EXTT1=
EXTT2=
EXTT3=
EXTT4=
EXTT5=
EXTT6=
EXTT7=
EXTT8=
EXTT9=
EXTT10=
EXTT11=
EXTT12=
PLAYORDER=
